<?xml version="1.0" encoding="utf-8"?>
<!-- Generator: Adobe Illustrator 19.0.0, SVG Export Plug-In . SVG Version: 6.00 Build 0)  -->
<svg version="1.1"  xmlns="http://www.w3.org/2000/svg" xmlns:xlink="http://www.w3.org/1999/xlink" x="0px" y="0px"
	 viewBox="0 0 595.3 841.9" style="enable-background:new 0 0 595.3 841.9;" xml:space="preserve">
<style type="text/css">
	.st0{fill:#E4AA36;}
</style>
<g id="XMLID_14_">
	<path id="XMLID_26_" class="st0" d="M319.5,387.1C319.5,387.1,319.5,387.1,319.5,387.1C319.5,387.1,319.5,387.1,319.5,387.1z"/>
	<path id="XMLID_31_" class="st0" d="M318.8,386.9c0.3,0.1,0.5,0.1,0.7,0.2C319.3,387,319,386.9,318.8,386.9z"/>
	<path id="XMLID_35_" class="st0" d="M336.2,409.1c0-10.3-7.1-19-16.6-21.5c0,0,0,0,0,0c-0.2-0.1-0.5-0.1-0.7-0.2
		c-1.3-0.3-2.6-0.4-3.9-0.4C309,387,303,387,297,387c-6,0-11.9,0-17.9,0.1c-2.4,0-4.6,0.4-6.6,1.1c-1.1,0.4-2.1,0.8-3.2,1.4
		c-0.3,0.1-0.5,0.3-0.8,0.4c0,0,0,0-0.1,0c-3,1.8-5.6,4.4-7.9,7.7c-0.1,0.2-0.3,0.4-0.4,0.6c-1.8,3.2-2.8,6.9-2.8,10.8v9.3
		c15.3-14.3,31.8-13.6,49.3-6.6c19.1,7.6,24.8,23.1,25.7,42.2c1.3-2.1,2.6-4.1,3.2-6.2c0.3-1.4,0.4-2.9,0.4-4.4V409.1z"/>
</g>
<g id="XMLID_12_">
	<path id="XMLID_22_" d="M281,442.7c-1.8,0-3.8,0.1-5.8,0c-6.6-0.4-11.9-4.1-13.7-9.5c-1.8-5.4,0.4-12.1,5.2-16.3
		c4.1-3.6,8.8-5.8,14.3-6.2c15.4-1.1,28.8,3.4,39.1,15.2c2.5,2.8,4.1,6.6,5.2,10.2c1.8,5.8,0.6,11.4-4.2,15.4
		c-4.7,3.9-10.1,2.9-15.3,0.7c-2-0.9-4.1-2.1-5.6-3.7C295,443,288.5,441.9,281,442.7z M278.3,439.2c7.1-0.1,14.8-6.7,16-13.6
		c0.7-4.4-1.6-8.2-5.9-9.6c-7.7-2.4-18.1,4.7-19.1,13C268.5,435,272.3,439.3,278.3,439.2z M298.8,435c0.1,6.1,4.6,11.4,9.8,11.3
		c4.9,0,8.7-4.7,8.6-10.4c-0.1-6.2-4.6-11.3-9.8-11.3C302.6,424.7,298.7,429.3,298.8,435z"/>
	<path id="XMLID_21_" d="M261.8,414.8c-1-9.8,4-16.8,11.9-18.1c6.2-1.1,14.8,3.6,15.7,10.4C279.6,406.5,270.3,408.3,261.8,414.8z"/>
	<path id="XMLID_18_" d="M329.8,436.2c-2.8-9.5-8.5-16.2-16.3-21.3c5.4-4.5,13.1-3.7,18,1.6C336.5,422.1,336,430.3,329.8,436.2z"/>
	<path id="XMLID_1_" d="M288.8,454.8l-2-0.7c-2.6-1-4-3.9-3-6.5l0,0c0.6-1.8,2.6-2.7,4.4-2l5.2,1.9c1.8,0.6,2.7,2.6,2,4.4l0,0
		C294.3,454.4,291.4,455.8,288.8,454.8z"/>
	<path id="XMLID_10_" d="M306.1,430.3c0.8,0.1,1.3,1.9,0.7,2.1c-0.6,0.3-4.2,0.7-4.2,0.7s3.9,2.4,5.1,3.3c1.2,0.9-1,3.1-2.3,1.7
		s-4.7-4.7-4.8-5.4C300.4,432.1,305.3,430.2,306.1,430.3z"/>
	<path id="XMLID_2_" d="M283.3,432.5L283.3,432.5c-1-0.8-1.2-2.3-0.5-3.3l1.7-2.2c0.8-1,2.3-1.2,3.3-0.5h0c1,0.8,1.2,2.3,0.5,3.3
		l-1.7,2.2C285.8,433.1,284.3,433.3,283.3,432.5z"/>
</g>
</svg>
